# xmcd
# 
# Track frame offsets:
#     150
#     17265
#     34962
#     50415
#     70467
#     111632
#     129645
#     177660
#     200815
# 
# Disc length: 2925
# 
# Revision: 4
# Processed by: cddbd v1.5.2PL0 Copyright (c) Steve Scherf et al.
# Submitted via: fre:ac v1.0.17
# 
DISCID=8b0b6b09
DTITLE=The Paul Butterfield Blues Band - Strawberry Jam
DYEAR=1995
DGENRE=Blues
TTITLE0=Just to be with You
TTITLE1=Mystery Train
TTITLE2=Tollin' Bells
TTITLE3=Cha Cha in Blues
TTITLE4=Rock Me
TTITLE5=One More Heartache
TTITLE6=Strawberry Jam
TTITLE7=Vome On in this House
TTITLE8=Born in Chicago
EXTD=
EXTT0=
EXTT1=
EXTT2=
EXTT3=
EXTT4=
EXTT5=
EXTT6=
EXTT7=
EXTT8=
PLAYORDER=
